<svg xmlns="http://www.w3.org/2000/svg" viewBox="0 0 172.85 194.56"><defs><style>.cls-1{fill:#10c286;}</style></defs><title>logo-WD-B</title><g id="Laag_2" data-name="Laag 2"><g id="Laag_11" data-name="Laag 11"><path class="cls-1" d="M86.48,194.56,0,147.43V48.76L86.44,0l86.41,49.82v97.61ZM5.23,144.32,86.47,188.6l81.15-44.28V52.84L86.41,6,5.23,51.81Z"/><polygon class="cls-1" points="82.37 176.08 82.22 160.21 51.59 144.42 52.1 86.82 38.88 92.85 38.88 138.41 26.66 131.58 26.66 49.42 14.21 56.29 14.21 140.49 82.37 176.08"/><polygon class="cls-1" points="66.22 142.25 82.37 149.95 82.37 16.96 66.29 26.03 66.22 142.25"/><polygon class="cls-1" points="106.63 142.25 106.59 26.03 90.48 16.96 90.48 149.95 106.63 142.25"/><polyline class="cls-1" points="114.22 31.47 114.22 46.16 143.18 61.95 143.18 133.44 90.47 160.55 90.48 176.34 158.3 140.68 158.3 57.39 114.22 31.47"/></g></g></svg>