<svg xmlns="http://www.w3.org/2000/svg" viewBox="0 0 144.09 161.57"><defs><style>.cls-1{fill:#10c286;}.cls-2{fill:none;}</style></defs><title>logo-WD-C</title><g id="Laag_2" data-name="Laag 2"><g id="Laag_11" data-name="Laag 11"><polygon class="cls-1" points="72.22 161.57 72.22 145.74 37.63 127.46 37.63 69.86 24.66 75.89 24.66 121.44 12.45 114.62 12.45 32.46 0 39.32 0 123.53 72.22 161.57"/><polygon class="cls-1" points="52.01 124.78 68.16 132.99 68.16 0 52.08 9.07 52.01 124.78"/><polygon class="cls-1" points="92.42 124.78 92.13 9.36 76.27 0 76.27 132.99 92.42 124.78"/><polyline class="cls-1" points="92.13 9.36 92.01 24.2 128.97 44.98 128.97 115.62 72.21 145.74 72.22 161.57 144.09 123.53 144.09 39.32 92.13 9.36"/><path class="cls-2" d="M172.85,130.47" transform="translate(-14.21)"/><path class="cls-2" d="M0,31.79" transform="translate(-14.21)"/></g></g></svg>