<svg xmlns="http://www.w3.org/2000/svg" viewBox="0 0 290.09 468.39"><path d="M0,468.39V383.53a22.19,22.19,0,0,0,1.52-2.25q40.61-77.59,81.18-155.2c3.69-7.05,3.63-7-1.44-13.22a6.43,6.43,0,0,0-5.6-2.6c-24.12.09-48.25.05-72.37.06-1.1,0-2.19.11-3.29.17V93.66c1.28.06,2.56.17,3.84.17,42.68,0,85.35-.2,128,.18,8.44.08,15.67-1.44,21.9-7.07a18.17,18.17,0,0,0,4.09-4.6q17.44-32.94,34.62-66c2.82-5.46,6.09-10.46,10.75-14.44A7.26,7.26,0,0,1,207.52.12C234,0,260.38.07,286.81,0c2.47,0,3.29.63,3.28,3.24-.09,26.44,0,52.89-.1,79.34a9.42,9.42,0,0,1-1,4.16q-40.49,77.55-81.07,155.05c-4,7.62-4,7.54,1.49,14.17a5.66,5.66,0,0,0,4.94,2.17q36.07-.09,72.14,0c3.55,0,3.55,0,3.55,3.64q0,54.56,0,109.09c0,3.71,0,3.71-3.77,3.71-42.5,0-85,.21-127.48-.17-8.41-.07-15.71,1.23-21.93,7-1.57,1.45-3.39,2.88-4.36,4.71-10.67,20.08-21.12,40.28-31.78,60.36-3.5,6.59-6.15,13.71-12.08,18.87a10.74,10.74,0,0,1-7.7,3.13C54,468.29,27,468.37,0,468.39Z"/></svg>