<svg xmlns="http://www.w3.org/2000/svg" viewBox="0 0 372.56 439.81"><path d="M258.21,421.33a23.51,23.51,0,0,1-6.1-15.91q0-39.33,0-78.65c0-7.16-.14-14.34-2-21.31-.85-3.18-2.21-6.23-3.38-9.46,4-.85,8.15-1.68,12.29-2.63,25.28-5.82,49-15.19,69.48-31.47,23.6-18.73,38.14-42.92,42.41-72.81,4.12-28.77.78-56.66-11.72-83.14a109.13,109.13,0,0,0-18.8-27.56c-.4-.44-.78-.9-.88-1,9.09-22.16,9.7-44.11.82-66.14-1.4-3.49-3.72-6.61-5.58-9.93A2.55,2.55,0,0,0,332.09,0a102,102,0,0,0-57.73,19.07c-6,4.25-11.38,9.48-17,14.34A2.07,2.07,0,0,1,255,34c-14.44-5-29.43-7.17-44.59-8.26a248.9,248.9,0,0,0-40.68.33c-14,1.29-27.82,3.59-41.1,8.45a1.87,1.87,0,0,1-2.39-.56C110.35,17.26,91.21,6.3,68.55,1.84,63,.74,57.27.64,51.63,0a2.75,2.75,0,0,0-2.79,1.43,61.5,61.5,0,0,0-10.48,27,82.32,82.32,0,0,0,3.11,39.19c1.19,3.51,3,6.81,4.62,10.44-1.85,2.09-4,4.44-6.06,6.9C25,103.1,16.2,124,12.91,147.18c-2.55,18.06-2.23,36,2.32,53.74,6.9,26.88,22.14,48.05,44.42,64.29,17.29,12.6,36.64,20.79,57.24,26.14,6.52,1.7,13.15,3,19.73,4.44.32.07.62.18.76.22-1.23,3.85-3,7.55-3.53,11.42-1.06,7.19-1.51,14.47-2,21.72-.11,1.5-.51,2.23-1.93,2.71-10.06,3.4-20.4,4.1-30.88,3.07a66.24,66.24,0,0,1-27.32-8.54,55.89,55.89,0,0,1-19.29-18.86c-8.33-13.2-19.82-22.07-35.34-25.22A25.56,25.56,0,0,0,4,282.73c-4.33,1.38-5.19,4-2.23,7.49a28.13,28.13,0,0,0,5.74,5.27c10,6.59,16.65,15.91,22.23,26.16a92.91,92.91,0,0,1,4.86,10.11c5.17,12.91,14.17,22.55,25.62,30,14.49,9.43,30.64,13,47.73,12.33,7.91-.33,15.79-1.5,23.81-2.3v3c0,10.36.07,20.73,0,31.1a22.54,22.54,0,0,1-8.79,17.92,15.55,15.55,0,0,1-11.3,3.72,269.37,269.37,0,0,0,161,0A17.16,17.16,0,0,1,258.21,421.33Z"/></svg>