<?xml version="1.0" encoding="UTF-8" standalone="no"?> <!-- Created with Vectornator for iOS (http://vectornator.io/) --><!DOCTYPE svg PUBLIC "-//W3C//DTD SVG 1.1//EN" "http://www.w3.org/Graphics/SVG/1.1/DTD/svg11.dtd">
<svg style="fill-rule:evenodd;clip-rule:evenodd;stroke-linecap:round;stroke-linejoin:round;" xmlns:vectornator="http://vectornator.io" xmlns:xlink="http://www.w3.org/1999/xlink" xmlns="http://www.w3.org/2000/svg" xml:space="preserve" version="1.1" viewBox="0 0 512 512">
<metadata>
<vectornator:setting key="DimensionsVisible" value="1"/>
<vectornator:setting key="SnapToGrid" value="0"/>
<vectornator:setting key="SnapToPoints" value="0"/>
<vectornator:setting key="GuidesVisible" value="1"/>
<vectornator:setting key="RulersVisible" value="1"/>
<vectornator:setting key="SnapToEdges" value="0"/>
<vectornator:setting key="DisplayWhiteBackground" value="0"/>
<vectornator:setting key="SnapToGuides" value="1"/>
<vectornator:setting key="GridSpacing" value="36"/>
<vectornator:setting key="Units" value="Pixels"/>
<vectornator:setting key="DynamicGuides" value="0"/>
<vectornator:setting key="New" value="1"/>
</metadata>
<defs/>
<g id="Layer 1" vectornator:layerName="Layer 1">
<path stroke="#fcfdfd" stroke-width="1" d="M183.031+500.502C183.031+336.713+183.031+336.713+183.031+172.924C231.603+172.924+231.603+172.924+280.175+172.924C280.175+194.951+280.175+194.951+280.175+216.978C289.031+201.991+319.436+178.06+345.69+169.535C435.889+143.764+498.426+203.927+499.313+290.4C500.031+360.432+500.066+430.468+500.443+500.502C449.612+500.502+449.612+500.502+398.78+500.502C398.78+440.258+399.131+380.013+398.78+319.77C398.368+248.786+306.467+225.895+290.341+290.4C288.288+298.613+286.458+306.167+285.822+317.51C282.411+378.413+285.069+439.505+284.693+500.502C233.862+500.502+233.862+500.502+183.031+500.502Z" fill="#000000" stroke-linecap="round" opacity="1" stroke-linejoin="round"/>
<path stroke="#ffffff" stroke-width="1" d="M16.9824+500.502C16.9824+336.713+16.9824+336.713+16.9824+172.924C67.8135+172.924+67.8135+172.924+118.645+172.924C118.645+336.713+118.645+336.713+118.645+500.502C67.8135+500.502+67.8135+500.502+16.9824+500.502Z" fill="#000000" stroke-linecap="round" opacity="1" stroke-linejoin="round"/>
<path stroke="#fafbfc" stroke-width="1" d="M57.6473+10.2646C137.954-4.46445+150.477+120.405+79.1093+126.611C-1.04582+133.581-15.5958+23.6981+57.6473+10.2646Z" fill="#000000" stroke-linecap="round" opacity="1" stroke-linejoin="round"/>
</g>
</svg>
