<svg xmlns="http://www.w3.org/2000/svg" viewBox="0 0 43.3 48.22"><defs><style>.cls-1{fill:#10c286;}</style></defs><title>Middel 1</title><g id="Laag_2" data-name="Laag 2"><g id="Laag_1-2" data-name="Laag 1"><polygon class="cls-1" points="20.1 48.22 20.1 42.2 12.38 37.96 12.38 20.06 7.82 22.48 7.79 35.35 4.7 33.58 4.7 8.89 0 11.61 0 36.61 20.1 48.22"/><polygon class="cls-1" points="15.4 36.15 20.1 38.54 20.1 0 15.4 2.71 15.4 36.15"/><polygon class="cls-1" points="27.9 36.1 27.9 2.72 23.2 0 23.2 38.54 27.9 36.1"/><polygon class="cls-1" points="31 4.51 31 10.34 38.61 14.61 38.61 33.71 23.2 42.2 23.2 48.21 43.3 36.61 43.3 11.61 31 4.51"/></g></g></svg>