<svg xmlns="http://www.w3.org/2000/svg" viewBox="0 0 455.38 292.26"><path d="M440.87,290.84c-4.23,1.89-421.83,1.89-426.07,0l151.5-146,29.82,23.93c8.26,6.62,16.49,13.28,24.76,19.87,4.77,3.8,9.09,3.85,13.89,0,18.11-14.48,36.17-29,54.6-43.81Z"/><path d="M16.46.07H439.15c.09.24.18-.24.26,0Q333.66,85,227.77,170.44C157.18,113.72,86.69,56.71,16.2.07,16.28-.17,16.37.31,16.46.07Z"/><path d="M304,133C354.14,92.75,404.55,52.7,455.23,12a67,67,0,0,1,0,8.16c.06,23.08,0,46.16,0,69.23q0,90.65,0,181.29c0,2.3.26,4.59,0,7.92C404.46,229.61,354.19,181.44,304,133Z"/><path d="M1.21,278.24C-.6,271.44-.29,16.61,1.54,12.4c50,40.15,99.83,80.14,150.06,120.48C101.37,181.36,51.62,229.61,1.21,278.24Z"/></svg>