<svg xmlns="http://www.w3.org/2000/svg" viewBox="0 0 405.17 349.6"><path d="M245.89,25.07c17.87,3.8,35.74,7.67,53.63,11.36,2.81.58,4.06,1.71,4.79,4.6,4.47,17.81,22,29.2,39.66,26.06C367.17,63,379.7,38.26,369,18c-8.88-16.86-38.18-27.11-56.71-5.32-1.69,2-3.08,2.59-5.7,2C284.72,9.9,262.79,5.3,240.87.61c-8.92-1.9-13.09.5-15.83,9.17Q213.18,47.39,201.33,85c-.71,2.26-1.43,3.6-4.24,3.59-14.59-.06-29,2-43.21,5C128,99,103.87,108.73,82,123.71c-1.79,1.22-2.93.89-4.69.07-7.8-3.6-15.43-8.08-23.65-10.2-22-5.69-51.53,8.85-53.53,40.64-1.19,18.84,7.75,32.63,22.82,42.93,1.81,1.24,2.47,2.22,2.1,4.46-4.56,27.51,1.18,52.82,16.92,75.73,18.36,26.74,44,44.28,73.69,56,34.32,13.56,70.08,18.35,106.88,15.42,29.54-2.34,57.68-9.66,84.1-23.33,21.7-11.23,40.43-26,54.82-45.85,16.14-22.28,22.81-47.17,19.17-74.49-.66-4.93.54-7.37,4.43-10.26,20.95-15.52,26-40.36,13-61.06-15.47-24.75-48.2-27.19-67.25-11.64-2.93,2.4-4.53,2.36-7.51.43-27.09-17.58-56.91-27.4-88.94-30.73-3.82-.39-7.65-.73-12-1.15,7.13-22.18,14.12-43.93,21.2-66C244.67,24.88,245.29,24.94,245.89,25.07ZM112.45,196.21c.07-14.83,12.86-27.46,27.73-27.38,15,.07,27.62,12.79,27.69,27.93,0,14.13-13.2,27.59-27.06,27.47C125,224.1,112.37,211.61,112.45,196.21Zm152.84-27.39c15,.11,27.4,12.91,27.29,28.23-.1,14.66-13.06,27.24-28,27.18s-27.21-12.84-27.23-28.29C237.32,181.25,250.23,168.72,265.29,168.82Zm-9.19,95a12.53,12.53,0,0,1,7.61-2.06c4.27.4,8,2.74,9.37,7.07,1.55,4.94-.94,9.27-4.66,11.83-7.07,4.86-14.36,9.7-22.21,13a106.31,106.31,0,0,1-43.66,8.12c-23.23-.19-44.81-5.81-63.92-19.52a20.89,20.89,0,0,1-3.9-3.48c-3.67-4.43-4-9.78-1.06-13,4.37-4.72,10.17-5.65,15.13-2.21a92.53,92.53,0,0,0,52.85,17A93.68,93.68,0,0,0,256.1,263.82Z"/></svg>