<svg xmlns="http://www.w3.org/2000/svg" viewBox="0 0 268.58 226.16"><path d="M328.39,202.65c-3.6,3.32-7.22,6.61-10.83,9.91Q266.27,259.44,215,306.33a3,3,0,0,0-.87,1.79c-.61,7.27-1.14,14.54-1.72,21.81q-1.4,18-2.83,35.92c-.11,1.45-.2,2.89-.3,4.48.89-.1,1.6-.12,2.28-.27a23.38,23.38,0,0,0,11.13-6.29c7.37-7,14.61-14.08,21.9-21.13l7.17-6.92c.38.26.64.43.89.62Q281.84,358,311,379.7a25.74,25.74,0,0,0,9,4.3c6.06,1.59,10.53-.35,13.22-6a37.55,37.55,0,0,0,2.63-7.94c3.25-14.84,6.37-29.72,9.52-44.58Q353.69,286.23,362,247q7.29-34.29,14.6-68.58a24.94,24.94,0,0,0,.35-10.07c-1-4.88-5.53-11-12.69-9.81a25.91,25.91,0,0,0-5.14,1.34Q304,181.08,248.86,202.39q-57,22-114,44-9.26,3.57-18.41,7.42a13.19,13.19,0,0,0-6.33,5.13c-2.47,4-1.63,7.42,2.56,9.51a38.89,38.89,0,0,0,6,2.11c19.62,6,39.25,12,58.85,18.07a4.24,4.24,0,0,0,3.92-.56q68.61-43.24,137.25-86.42c1.73-1.09,3.44-2.22,5.24-3.18a6.48,6.48,0,0,1,5.17-.51,1.63,1.63,0,0,1,1,2.69A11.06,11.06,0,0,1,328.39,202.65Z" transform="translate(-108.75 -158.37)"/></svg>