<svg xmlns="http://www.w3.org/2000/svg" viewBox="0 0 172.85 194.56"><defs><style>.cls-1{fill:#10c286;}</style></defs><title>Middel 12</title><g id="Laag_2" data-name="Laag 2"><g id="Laag_11" data-name="Laag 11"><path class="cls-1" d="M86.48,194.56,0,147.43V48.76L86.44,0l86.41,49.82v97.61ZM5.23,144.32,86.47,188.6l81.15-44.28V52.84L86.41,6,5.23,51.81Z"/><polygon class="cls-1" points="82.38 151.7 37.95 87.59 38.02 110.24 49.28 127.52 26.37 134.84 27.04 49.12 13.71 56.54 14.71 140.75 27.3 147.47 27.3 147.47 27.3 147.47 58.29 141.34 82.38 178.31 82.38 151.7"/><polygon class="cls-1" points="66.23 115.24 82.38 137.95 82.35 15.96 66.29 26.03 66.23 115.24"/><polygon class="cls-1" points="90.46 141.95 106.63 136.06 106.59 26.03 90.54 15.96 90.46 141.95"/><polyline class="cls-1" points="113.22 30.47 113.22 49.16 143.05 61.95 143.32 132.44 90.46 151.7 90.46 178.31 158.09 139.68 158.51 57.39 113.22 30.47"/></g></g></svg>