<svg xmlns="http://www.w3.org/2000/svg" viewBox="0 0 144.09 159.37"><defs><style>.cls-1{fill:#10c286;}</style></defs><title>logo-WD-A</title><g id="Laag_2" data-name="Laag 2"><g id="Laag_11" data-name="Laag 11"><polygon class="cls-1" points="68.16 159.12 68.01 143.25 37.38 127.46 37.89 69.86 24.66 75.89 24.66 121.44 12.45 114.62 12.45 32.46 0 39.32 0 123.53 68.16 159.12"/><polygon class="cls-1" points="52.01 125.28 68.16 132.99 68.16 0 52.08 9.07 52.01 125.28"/><polygon class="cls-1" points="92.42 125.28 92.39 9.07 76.27 0 76.27 132.99 92.42 125.28"/><polyline class="cls-1" points="100.01 14.51 100.01 29.2 128.97 44.98 128.97 116.48 76.26 143.59 76.27 159.37 144.09 123.72 144.09 40.43 100.01 14.51"/></g></g></svg>