<!-- Generated by IcoMoon.io -->
<svg version="1.1" xmlns="http://www.w3.org/2000/svg" width="28" height="32" viewBox="0 0 28 32">
<title>Middel-9</title>
<path fill="#10c286" d="M14.224 32l-14.224-7.752v-16.229l14.217-8.020 14.212 8.194v16.054zM0.86 23.737l13.362 7.283 13.347-7.283v-15.046l-13.357-7.704-13.352 7.535z"></path>
<path fill="#10c286" d="M4.319 24.426l-2.064-1.112v-14.015l2.192-1.22-0.128 16.347z"></path>
<path fill="#10c286" d="M4.339 24.426l-1.336-1.586 5.438-2.702 3.548 2.939-7.65 1.349z"></path>
<path fill="#10c286" d="M13.549 24.951v4.377l-7.296-11.196-0.011-3.725 7.308 10.544z"></path>
<path fill="#10c286" d="M10.893 18.954l2.656 3.735-0.005-20.064-2.641 1.656-0.010 14.673z"></path>
<path fill="#10c286" d="M14.878 23.347l2.66-0.969-0.007-18.097-2.64-1.656-0.013 20.722z"></path>
<path fill="#10c286" d="M18.622 5.011v3.074l4.906 2.104 0.044 11.594-8.694 3.168v4.377l11.123-6.354 0.069-13.535-7.449-4.428z"></path>
</svg>
